<svg width="330" height="326" viewBox="-50 -50 430 426" fill="none" xmlns="http://www.w3.org/2000/svg">
<circle cx="45.4719" cy="45.4719" r="45.4719" fill="white"/>
<circle cx="284.527" cy="45.4719" r="45.4719" fill="white"/>
<circle cx="284.527" cy="280.195" r="45.4719" fill="white"/>
<path d="M284.526 115.195C309.64 115.195 329.998 135.554 329.998 160.667C329.998 185.781 309.64 206.139 284.526 206.139C282.73 206.139 280.958 206.035 279.216 205.832C269.129 204.659 258.259 204.77 250.064 210.768C238.164 219.476 227.544 229.811 218.516 241.471L215.806 244.97C208.282 254.686 207.874 267.904 207.874 280.193C207.874 305.307 187.515 325.665 162.402 325.665C137.288 325.665 116.93 305.307 116.93 280.193C116.93 255.08 137.288 234.722 162.402 234.722C163.532 234.722 164.654 234.763 165.764 234.844C175.031 235.521 184.799 235.39 192.701 230.499C211.274 219.004 227.257 203.774 239.633 185.776C242 182.333 242.234 177.92 241.017 173.923C239.741 169.729 239.054 165.279 239.054 160.667C239.054 135.554 259.413 115.195 284.526 115.195Z" fill="white"/>
<path d="M167.597 115.195C192.71 115.195 213.068 135.554 213.068 160.667C213.068 185.781 192.71 206.139 167.597 206.139C165.8 206.139 164.028 206.035 162.287 205.832C152.2 204.659 141.33 204.77 133.135 210.768C121.234 219.476 110.614 229.811 101.586 241.471L98.8767 244.97C91.3524 254.686 90.9438 267.904 90.9438 280.193C90.9438 305.307 70.5854 325.665 45.4719 325.665C20.3585 325.665 0 305.307 0 280.193C0 255.08 20.3585 234.722 45.4719 234.722C46.6027 234.722 47.7239 234.763 48.8339 234.844C58.1018 235.521 67.8696 235.39 75.7713 230.499C94.3446 219.004 110.327 203.774 122.703 185.776C125.07 182.333 125.304 177.92 124.087 173.923C122.811 169.729 122.125 165.279 122.125 160.667C122.125 135.554 142.483 115.195 167.597 115.195Z" fill="white"/>
<path d="M167.597 0C192.71 0 213.068 20.3585 213.068 45.4719C213.068 70.5854 192.71 90.9438 167.597 90.9438C165.8 90.9438 164.028 90.8396 162.287 90.637C152.2 89.4633 141.33 89.5751 133.135 95.5722C121.234 104.281 110.614 114.616 101.586 126.276L98.8767 129.775C91.3524 139.491 90.9438 152.709 90.9438 164.998C90.9438 190.112 70.5854 210.47 45.4719 210.47C20.3585 210.47 0 190.112 0 164.998C0 139.885 20.3585 119.526 45.4719 119.526C46.6027 119.526 47.7239 119.567 48.8339 119.649C58.1018 120.326 67.8696 120.194 75.7713 115.304C94.3446 103.809 110.327 88.5787 122.703 70.5804C125.07 67.1375 125.304 62.7251 124.087 58.728C122.811 54.5341 122.125 50.0832 122.125 45.4719C122.125 20.3585 142.483 0 167.597 0Z" fill="white"/>
</svg>
