<svg width="1888" height="326" viewBox="0 0 1888 326" fill="none" xmlns="http://www.w3.org/2000/svg">
<circle cx="45.4719" cy="45.4719" r="45.4719" fill="white"/>
<circle cx="284.527" cy="45.4719" r="45.4719" fill="white"/>
<circle cx="284.527" cy="280.195" r="45.4719" fill="white"/>
<path d="M284.526 115.195C309.64 115.195 329.998 135.554 329.998 160.667C329.998 185.781 309.64 206.139 284.526 206.139C282.73 206.139 280.958 206.035 279.216 205.832C269.129 204.659 258.259 204.77 250.064 210.768C238.164 219.476 227.544 229.811 218.516 241.471L215.806 244.97C208.282 254.686 207.874 267.904 207.874 280.193C207.874 305.307 187.515 325.665 162.402 325.665C137.288 325.665 116.93 305.307 116.93 280.193C116.93 255.08 137.288 234.722 162.402 234.722C163.532 234.722 164.654 234.763 165.764 234.844C175.031 235.521 184.799 235.39 192.701 230.499C211.274 219.004 227.257 203.774 239.633 185.776C242 182.333 242.234 177.92 241.017 173.923C239.741 169.729 239.054 165.279 239.054 160.667C239.054 135.554 259.413 115.195 284.526 115.195Z" fill="white"/>
<path d="M167.597 115.195C192.71 115.195 213.068 135.554 213.068 160.667C213.068 185.781 192.71 206.139 167.597 206.139C165.8 206.139 164.028 206.035 162.287 205.832C152.2 204.659 141.33 204.77 133.135 210.768C121.234 219.476 110.614 229.811 101.586 241.471L98.8767 244.97C91.3524 254.686 90.9438 267.904 90.9438 280.193C90.9438 305.307 70.5854 325.665 45.4719 325.665C20.3585 325.665 0 305.307 0 280.193C0 255.08 20.3585 234.722 45.4719 234.722C46.6027 234.722 47.7239 234.763 48.8339 234.844C58.1018 235.521 67.8696 235.39 75.7713 230.499C94.3446 219.004 110.327 203.774 122.703 185.776C125.07 182.333 125.304 177.92 124.087 173.923C122.811 169.729 122.125 165.279 122.125 160.667C122.125 135.554 142.483 115.195 167.597 115.195Z" fill="white"/>
<path d="M167.597 0C192.71 0 213.068 20.3585 213.068 45.4719C213.068 70.5854 192.71 90.9438 167.597 90.9438C165.8 90.9438 164.028 90.8396 162.287 90.637C152.2 89.4633 141.33 89.5751 133.135 95.5722C121.234 104.281 110.614 114.616 101.586 126.276L98.8767 129.775C91.3524 139.491 90.9438 152.709 90.9438 164.998C90.9438 190.112 70.5854 210.47 45.4719 210.47C20.3585 210.47 0 190.112 0 164.998C0 139.885 20.3585 119.526 45.4719 119.526C46.6027 119.526 47.7239 119.567 48.8339 119.649C58.1018 120.326 67.8696 120.194 75.7713 115.304C94.3446 103.809 110.327 88.5787 122.703 70.5804C125.07 67.1375 125.304 62.7251 124.087 58.728C122.811 54.5341 122.125 50.0832 122.125 45.4719C122.125 20.3585 142.483 0 167.597 0Z" fill="white"/>
<path d="M431.801 266V60.1996H476.501V266H431.801Z" fill="white"/>
<path d="M522.035 266V60.1996H629.135C643.935 60.1996 656.235 62.9996 666.035 68.5996C676.035 73.9996 683.535 81.6996 688.535 91.6996C693.735 101.5 696.335 113.2 696.335 126.8C696.335 140.4 693.635 152.3 688.235 162.5C683.035 172.5 675.335 180.3 665.135 185.9C654.935 191.5 642.435 194.3 627.635 194.3H566.735V266H522.035ZM566.735 157.7H621.635C631.035 157.7 638.235 155 643.235 149.6C648.435 144.2 651.035 136.7 651.035 127.1C651.035 120.5 649.935 115 647.735 110.6C645.535 106.2 642.235 102.8 637.835 100.4C633.635 97.9996 628.235 96.7996 621.635 96.7996H566.735V157.7Z" fill="white"/>
<path d="M806.334 269.6C794.334 269.6 782.934 268.4 772.134 266C761.334 263.6 751.734 259.8 743.334 254.6C735.134 249.2 728.634 242.5 723.834 234.5C719.234 226.3 716.934 216.4 716.934 204.8C716.934 203.8 716.934 202.8 716.934 201.8C716.934 200.6 717.034 199.7 717.234 199.1H761.634C761.434 199.7 761.334 200.5 761.334 201.5C761.334 202.5 761.334 203.4 761.334 204.2C761.334 210.6 763.034 216 766.434 220.4C770.034 224.8 775.234 228.1 782.034 230.3C788.834 232.5 796.734 233.6 805.734 233.6C811.534 233.6 816.634 233.3 821.034 232.7C825.634 231.9 829.634 230.9 833.034 229.7C836.634 228.3 839.534 226.7 841.734 224.9C844.134 223.1 845.834 221 846.834 218.6C848.034 216.2 848.634 213.5 848.634 210.5C848.634 205.1 846.834 200.7 843.234 197.3C839.834 193.9 835.034 191 828.834 188.6C822.834 186.2 816.034 184 808.434 182C800.834 180 793.034 178 785.034 176C777.034 173.8 769.234 171.2 761.634 168.2C754.034 165 747.234 161.2 741.234 156.8C735.234 152.4 730.434 146.8 726.834 140C723.234 133.2 721.434 125 721.434 115.4C721.434 105.2 723.534 96.3996 727.734 88.9996C732.134 81.5996 738.234 75.4996 746.034 70.6996C753.834 65.8996 762.834 62.3996 773.034 60.1996C783.234 57.7996 794.334 56.5996 806.334 56.5996C817.534 56.5996 828.134 57.7996 838.134 60.1996C848.134 62.3996 856.934 65.9996 864.534 70.9996C872.134 75.9996 878.034 82.2996 882.234 89.8996C886.634 97.4996 888.834 106.5 888.834 116.9V120.5H845.334V118.1C845.334 112.7 843.734 108.1 840.534 104.3C837.334 100.5 832.834 97.4996 827.034 95.2996C821.234 93.0996 814.434 91.9996 806.634 91.9996C798.234 91.9996 791.034 92.7996 785.034 94.3996C779.234 95.9996 774.734 98.3996 771.534 101.6C768.534 104.6 767.034 108.2 767.034 112.4C767.034 117.2 768.734 121.2 772.134 124.4C775.734 127.4 780.534 130.1 786.534 132.5C792.734 134.7 799.634 136.7 807.234 138.5C814.834 140.3 822.634 142.3 830.634 144.5C838.634 146.7 846.434 149.3 854.034 152.3C861.634 155.3 868.434 159.1 874.434 163.7C880.434 168.1 885.234 173.6 888.834 180.2C892.434 186.8 894.234 194.7 894.234 203.9C894.234 219.7 890.434 232.4 882.834 242C875.234 251.6 864.834 258.6 851.634 263C838.434 267.4 823.334 269.6 806.334 269.6Z" fill="white"/>
<path d="M1082.33 269.6C1049.93 269.6 1024.93 261 1007.33 243.8C989.934 226.4 981.234 199.5 981.234 163.1C981.234 138.9 985.434 119 993.834 103.4C1002.23 87.5996 1014.43 75.8996 1030.43 68.2996C1046.43 60.4996 1065.63 56.5996 1088.03 56.5996C1101.43 56.5996 1114.03 58.0996 1125.83 61.0996C1137.63 64.0996 1148.03 68.6996 1157.03 74.8996C1166.23 81.0996 1173.33 88.8996 1178.33 98.2996C1183.53 107.5 1186.13 118.5 1186.13 131.3H1140.83C1140.83 125.1 1139.43 119.6 1136.63 114.8C1134.03 110 1130.33 106 1125.53 102.8C1120.73 99.5996 1115.23 97.1996 1109.03 95.5996C1102.83 93.9996 1096.33 93.1996 1089.53 93.1996C1079.13 93.1996 1070.03 94.5996 1062.23 97.3996C1054.43 99.9996 1047.93 104.1 1042.73 109.7C1037.73 115.1 1033.93 121.9 1031.33 130.1C1028.73 138.3 1027.43 147.8 1027.43 158.6V167.6C1027.43 182.6 1029.63 194.9 1034.03 204.5C1038.43 214.1 1045.03 221.3 1053.83 226.1C1062.63 230.7 1073.53 233 1086.53 233C1097.33 233 1106.83 231.4 1115.03 228.2C1123.43 224.8 1129.93 220 1134.53 213.8C1139.33 207.6 1141.73 200 1141.73 191V188.9H1080.23V154.7H1186.13V266H1156.73L1152.83 243.8C1146.83 249.6 1140.33 254.4 1133.33 258.2C1126.53 262 1118.93 264.8 1110.53 266.6C1102.13 268.6 1092.73 269.6 1082.33 269.6Z" fill="white"/>
<path d="M1225.66 266V49.0996H1267.36V266H1225.66Z" fill="white"/>
<path d="M1378.24 269.6C1361.04 269.6 1346.44 266.7 1334.44 260.9C1322.44 254.9 1313.34 245.8 1307.14 233.6C1300.94 221.2 1297.84 205.7 1297.84 187.1C1297.84 168.1 1300.94 152.6 1307.14 140.6C1313.34 128.4 1322.44 119.4 1334.44 113.6C1346.44 107.6 1361.04 104.6 1378.24 104.6C1395.84 104.6 1410.54 107.6 1422.34 113.6C1434.34 119.4 1443.44 128.4 1449.64 140.6C1455.84 152.6 1458.94 168.1 1458.94 187.1C1458.94 205.7 1455.84 221.2 1449.64 233.6C1443.44 245.8 1434.34 254.9 1422.34 260.9C1410.54 266.7 1395.84 269.6 1378.24 269.6ZM1378.24 237.2C1387.44 237.2 1394.74 235.5 1400.14 232.1C1405.74 228.7 1409.84 223.5 1412.44 216.5C1415.04 209.5 1416.34 200.9 1416.34 190.7V183.5C1416.34 173.3 1415.04 164.7 1412.44 157.7C1409.84 150.7 1405.74 145.5 1400.14 142.1C1394.74 138.5 1387.44 136.7 1378.24 136.7C1369.24 136.7 1361.94 138.5 1356.34 142.1C1350.94 145.5 1346.94 150.7 1344.34 157.7C1341.74 164.7 1340.44 173.3 1340.44 183.5V190.7C1340.44 200.9 1341.74 209.5 1344.34 216.5C1346.94 223.5 1350.94 228.7 1356.34 232.1C1361.94 235.5 1369.24 237.2 1378.24 237.2Z" fill="white"/>
<path d="M1577.83 269.6C1567.63 269.6 1558.23 267.6 1549.63 263.6C1541.23 259.4 1534.43 253.1 1529.23 244.7H1527.13L1523.83 266H1489.63V49.0996H1531.33V125.6H1533.13C1536.33 121 1540.23 117.1 1544.83 113.9C1549.43 110.7 1554.63 108.4 1560.43 107C1566.23 105.4 1572.53 104.6 1579.33 104.6C1591.73 104.6 1602.53 107.5 1611.73 113.3C1621.13 119.1 1628.43 128.1 1633.63 140.3C1638.83 152.3 1641.43 167.8 1641.43 186.8C1641.43 205.8 1638.83 221.4 1633.63 233.6C1628.63 245.8 1621.33 254.9 1611.73 260.9C1602.33 266.7 1591.03 269.6 1577.83 269.6ZM1564.93 235.4C1573.33 235.4 1579.93 233.8 1584.73 230.6C1589.73 227.2 1593.33 222.2 1595.53 215.6C1597.73 209 1598.83 200.7 1598.83 190.7V183.8C1598.83 173.8 1597.73 165.5 1595.53 158.9C1593.33 152.1 1589.73 147.1 1584.73 143.9C1579.93 140.5 1573.33 138.8 1564.93 138.8C1558.93 138.8 1553.83 139.9 1549.63 142.1C1545.43 144.1 1541.93 147.1 1539.13 151.1C1536.53 154.9 1534.53 159.7 1533.13 165.5C1531.73 171.3 1531.03 177.7 1531.03 184.7V190.1C1531.03 199.5 1532.23 207.6 1534.63 214.4C1537.03 221.2 1540.73 226.4 1545.73 230C1550.73 233.6 1557.13 235.4 1564.93 235.4Z" fill="white"/>
<path d="M1713.85 269.6C1708.65 269.6 1703.05 269 1697.05 267.8C1691.25 266.6 1685.75 264.5 1680.55 261.5C1675.35 258.3 1671.05 253.8 1667.65 248C1664.45 242 1662.85 234.4 1662.85 225.2C1662.85 214.2 1665.25 205.1 1670.05 197.9C1674.85 190.7 1681.65 185.1 1690.45 181.1C1699.45 176.9 1710.15 174 1722.55 172.4C1734.95 170.8 1748.65 170 1763.65 170V158.3C1763.65 153.7 1762.85 149.7 1761.25 146.3C1759.85 142.9 1757.25 140.2 1753.45 138.2C1749.85 136.2 1744.75 135.2 1738.15 135.2C1731.55 135.2 1726.15 136 1721.95 137.6C1717.95 139.2 1715.05 141.3 1713.25 143.9C1711.65 146.3 1710.85 149 1710.85 152V155.6H1670.35C1670.15 154.6 1670.05 153.7 1670.05 152.9C1670.05 151.9 1670.05 150.7 1670.05 149.3C1670.05 140.1 1672.85 132.2 1678.45 125.6C1684.05 118.8 1691.95 113.6 1702.15 110C1712.35 106.4 1724.25 104.6 1737.85 104.6C1752.45 104.6 1764.65 106.5 1774.45 110.3C1784.45 114.1 1792.05 119.7 1797.25 127.1C1802.65 134.5 1805.35 143.8 1805.35 155V226.7C1805.35 230.3 1806.35 233 1808.35 234.8C1810.55 236.4 1812.95 237.2 1815.55 237.2H1825.45V264.5C1823.45 265.5 1820.35 266.5 1816.15 267.5C1811.95 268.7 1806.85 269.3 1800.85 269.3C1795.05 269.3 1789.85 268.4 1785.25 266.6C1780.85 265 1777.15 262.7 1774.15 259.7C1771.15 256.5 1769.05 252.7 1767.85 248.3H1765.75C1762.35 252.5 1758.15 256.2 1753.15 259.4C1748.35 262.6 1742.65 265.1 1736.05 266.9C1729.65 268.7 1722.25 269.6 1713.85 269.6ZM1727.95 238.1C1733.55 238.1 1738.55 237.3 1742.95 235.7C1747.35 233.9 1751.05 231.6 1754.05 228.8C1757.05 225.8 1759.35 222.2 1760.95 218C1762.75 213.8 1763.65 209.3 1763.65 204.5V195.8C1752.45 195.8 1742.45 196.6 1733.65 198.2C1724.85 199.6 1717.85 202.1 1712.65 205.7C1707.65 209.3 1705.15 214.3 1705.15 220.7C1705.15 224.3 1706.05 227.4 1707.85 230C1709.65 232.6 1712.25 234.6 1715.65 236C1719.05 237.4 1723.15 238.1 1727.95 238.1Z" fill="white"/>
<path d="M1846.17 266V49.0996H1887.87V266H1846.17Z" fill="white"/>
</svg>
